<svg xmlns="http://www.w3.org/2000/svg" viewBox="0 0 1440 320">
    <path fill="#075985" fill-opacity="1"
          d="M0,288L20,272C40,256,80,224,120,224C160,224,200,256,240,250.7C280,245,320,203,360,160C400,117,440,75,480,64C520,53,560,75,600,74.7C640,75,680,53,720,48C760,43,800,53,840,85.3C880,117,920,171,960,181.3C1000,192,1040,160,1080,160C1120,160,1160,192,1200,181.3C1240,171,1280,117,1320,101.3C1360,85,1400,107,1420,117.3L1440,128L1440,320L1420,320C1400,320,1360,320,1320,320C1280,320,1240,320,1200,320C1160,320,1120,320,1080,320C1040,320,1000,320,960,320C920,320,880,320,840,320C800,320,760,320,720,320C680,320,640,320,600,320C560,320,520,320,480,320C440,320,400,320,360,320C320,320,280,320,240,320C200,320,160,320,120,320C80,320,40,320,20,320L0,320Z"></path>
</svg>